<?xml version="1.0" encoding="utf-8"?>
<!-- Generator: Adobe Illustrator 27.0.1, SVG Export Plug-In . SVG Version: 6.00 Build 0)  -->
<svg version="1.1" id="Ebene_1" xmlns="http://www.w3.org/2000/svg" xmlns:xlink="http://www.w3.org/1999/xlink" x="0px" y="0px"
	 viewBox="0 0 1920 1080" style="enable-background:new 0 0 1920 1080;" xml:space="preserve">
<style type="text/css">
	.st0{fill:none;stroke:#000000;stroke-miterlimit:10;}
</style>
<g>
	<path class="st0" d="M839.19,462.58c3.02,3.32,6.58,3.44,9.96,2.61c5.8-1.42,11.45-3.42,17.19-5.09c2.36-0.69,4.77-1.57,7.17-1.62
		c3.69-0.07,5.61,2.92,4.23,6.33c-0.76,1.87-1.86,3.79-3.3,5.18c-9.02,8.68-18.93,16.05-31.11,19.73
		c-7.06,2.13-14.24,2.31-21.42,0.46c-3.6-0.93-7.19-1.9-10.79-2.8c-5.8-1.45-8.2-0.39-10.98,5.02c-1.6,3.12-2.99,6.36-4.53,9.52
		c-8.42,17.27-16.69,34.62-25.35,51.77c-9.88,19.59-21.22,38.33-33.73,56.37c-4.98,7.17-8.43,14.94-10.8,23.49
		c-2.58,9.3-6.65,18.22-10.5,27.12c-7.06,16.31-14.26,32.57-21.76,48.68c-5.18,11.12-13.52,19.67-23.56,26.63
		c-3.35,2.32-6.97,3.55-11.01,3.53c-4.26-0.02-7.24,2.06-10.05,5.19c-11.85,13.21-26.11,20.54-44.48,17.82
		c-2.12-0.31-4.63,1.01-6.75,2.03c-1.2,0.58-2.28,1.93-2.86,3.19c-3.79,8.32-11.22,10.2-19.07,9.91
		c-13.81-0.5-26.93,1.51-40.15,5.76c-9.08,2.92-19.05,3.27-28.68,4.15c-3.32,0.31-7.1-0.61-10.15-2.06
		c-6.88-3.26-13.6-6.95-20.09-10.94c-4.4-2.71-8.5-4.75-13.9-3.21c-4.04,1.15-7.61-0.61-10.89-3.13
		c-10.12-7.78-14.85-18.44-17.05-30.66c-1.93-10.73-1.83-21.36,0.4-32.02c1.18-5.67,2.12-11.38,3.2-17.07
		c0.91-4.77,1.18-9.46-1.32-13.89c-1.72-3.04-1.01-5.72,1.55-7.72c5.75-4.49,9.03-10.65,12.09-17.01
		c11.4-23.66,27.29-44.32,44.01-64.29c12.6-15.05,25.75-29.68,39.44-43.73c17.87-18.33,36.26-36.21,57.89-50.28
		c7.8-5.07,15.74-9.93,23.43-15.15c5.12-3.47,9.97-7.34,14.82-11.18c3.23-2.56,6.17-5.5,9.39-8.09c8.9-7.17,9.55-9.22,4.9-19.43
		c-5.88-12.88-10.08-26.26-11.9-40.3c-1.9-14.65-1.87-29.22,1.87-43.71c2.3-8.94,6.82-16.29,13.34-22.64
		c9.61-9.36,19.88-17.99,29-27.94c5.84-6.37,12.51-12.98,21.95-14.29c4.46-0.62,9.08-0.79,13.57-0.45c5.28,0.41,9.27-0.77,11.9-5.71
		c1.93-3.63,5.36-5.41,9.14-6.97c4.72-1.95,9.11-4.68,13.69-7c2.88-1.46,5.75-3.06,8.79-4.09c2.58-0.88,4.37-2.24,5.29-4.74
		c0.57-1.55,0.91-3.2,1.59-4.7c1.64-3.62,3.66-4.66,7.41-3.06c11.34,4.83,22.11,1.54,32.92-1.87c3.34-1.05,6.64-2.35,10.06-2.99
		c6.06-1.14,11.56-3.05,15.49-8.17c0.73-0.95,1.84-1.66,2.87-2.33c5.11-3.3,8.21-2.39,10.83,3.1c3.01,6.31,6.55,7.69,12.9,5.01
		c0.76-0.32,1.45-0.93,2.23-1.05c2.79-0.42,5.69-1.31,8.37-0.87c3.89,0.63,6.99,0.01,9.41-3.06c1.94-2.45,4.01-3.51,6.87-1.48
		c2.52,1.78,4.83,0.78,6.76-0.95c5.84-5.26,12-10.31,11.76-19.39c-0.06-2.17,0.76-4.51,1.72-6.52c3.6-7.51,5.23-8.47,13.51-7.38
		c3.07,0.4,5.57-0.38,7.12-2.64c3.59-5.24,7.92-6.44,14.21-5.3c8.46,1.53,15.57-3.34,22.38-7.54c4.15-2.56,8.14-4.25,13.05-4.94
		c5.66-0.8,11.14-2.65,17.01-2.52c2.95,0.06,4.59-2.34,5.78-4.95c1.61-3.52,3.27-7.05,5.2-10.4c2.65-4.59,3.92-9.51,4.41-14.72
		c0.52-5.55,1.46-11.09,1.61-16.65c0.12-4.47-0.18-9.09-1.2-13.42c-0.77-3.27-0.86-6.09,0.76-8.91c4.78-8.33,5.88-17.45,6.52-26.84
		c0.56-8.23,1.75-16.46,3.34-24.55c1.87-9.5,6.93-13.23,16.55-13.3c2.48-0.02,4.97-0.06,7.45,0.01c9.94,0.28,15.58,6.71,14.55,16.63
		c-1.48,14.18-2.92,28.36-4.55,42.53c-1.3,11.29-2.87,22.54-4.27,33.82c-0.97,7.79-1.52,15.65-2.88,23.37
		c-1.53,8.72,3.9,14.13,12.33,9.47c4.88-2.69,10.05-3.38,15.54-3.25c5.49,0.13,10.67,0.74,15.19,4.26c1.27,0.99,2.9,1.73,4.48,2.05
		c5.08,1.03,8.91,3.77,12.6,7.34c2.05,1.99,5.38,2.82,8.27,3.73c2.93,0.93,6.02,1.41,9.07,1.92c10.09,1.69,18.3,6.99,26.54,12.73
		c8.95,6.23,18.58,11.49,27.98,17.06c3.32,1.97,6.83,3.04,10.46,0.45c0.63-0.45,1.63-0.82,2.31-0.65c1.1,0.29,2.55,0.83,2.96,1.7
		c0.37,0.77-0.18,2.36-0.85,3.16c-1.23,1.47-4.28,1.78-3.48,4.45c0.49,1.64,2.25,2.86,3.16,4.43c1.43,2.47,3.11,4.95,3.84,7.65
		c2.71,10.01,9.23,15.34,19.31,16.57c5.32,0.65,10.68,1.01,16,1.66c2.44,0.3,4.91,0.75,7.24,1.51c11.82,3.8,23.34,8.39,34.12,14.58
		c6.39,3.67,11.37,8.68,14.23,15.81c2.3,5.73,5.68,11.02,8.12,16.7c1.52,3.53,2.51,7.38,3.17,11.18
		c1.46,8.46,4.51,15.63,12.08,20.65c23.2,15.4,40.41,35.79,50.24,62.07c4.29,11.48,7.5,23.32,8.2,35.52
		c0.36,6.26-1.35,12.66-2.38,18.95c-0.4,2.42-1.42,4.75-2.29,7.07c-1.8,4.77-1.31,9.33,1.09,13.75
		c8.85,16.37,12.37,34.06,13.31,52.45c0.22,4.3,1,8.65,2.14,12.81c1.25,4.55,1.15,8.85,0.21,13.43
		c-4.04,19.73-3.22,39.43,0.85,59.08c0.62,3,0.87,6.11,0.95,9.18c0.15,5.56,0,11.13,0.08,16.69c0.2,13.55-1.19,26.74-7.13,39.24
		c-1.5,3.17-1.9,7.19-1.71,10.75c0.36,6.58,1.35,13.15,2.4,19.68c3.48,21.53-2.6,40.56-15.31,57.67
		c-3.01,4.05-7.26,7.29-11.34,10.37c-3.72,2.81-6.56,6.11-9.05,10.01c-5.32,8.35-11.1,16.4-16.51,24.69c-1.3,2-2.52,4.44-2.63,6.73
		c-0.24,4.93-2.91,7.92-7.04,9.21c-10.65,3.33-16.92,11.34-22.66,20.06c-0.57,0.86-1.05,1.8-1.73,2.56c-2.56,2.85-4.5,3.02-7.43,0.5
		c-2.34-2.02-4.41-4.37-6.8-6.33c-3.74-3.07-7.6-4.36-12.53-1.92c-4.87,2.41-7.58,0.98-9.27-4.45c-1.47-4.72-2.44-9.61-3.44-14.46
		c-2.76-13.36-9.91-22.95-22.16-29.58c-7.69-4.16-14.46-10.26-21.03-16.17c-2.72-2.45-4.11-6.57-5.61-10.14
		c-2.13-5.07-5.2-8.35-11.13-8c-4.66,0.27-7.74-1.59-9.41-6.29c-1.57-4.42-3.61-5.21-7.61-3.7c-13.13,4.96-26.31,9.83-39.31,15.11
		c-7.83,3.19-15.35,7.16-23.08,10.62c-2.24,1-4.69,1.57-7.1,2.12c-6.76,1.54-10.12,0.01-12.55-6.58
		c-2.72-7.35-6.79-13.65-12.55-18.9c-2.44-2.23-4.9-4.44-7.25-6.77c-1.76-1.74-3.28-3.72-5.01-5.49c-2.96-3.04-4.21-6.05-2.6-10.58
		c1-2.83,0.13-6.48-0.44-9.67c-0.39-2.18-1.67-4.2-2.61-6.27c-2.85-6.28-4.68-12.69-4.35-19.77c0.18-3.84-0.97-7.73-1.46-11.6
		c-0.51-4.08-1.51-8.2-1.29-12.25c0.45-8.23,1.69-16.41,2.36-24.63c0.28-3.46,0.33-7.04-0.2-10.46c-0.74-4.8,0.82-8.4,5.04-10.22
		c6.58-2.84,10.28-7.89,13.11-14.15c1.45-3.21,2.67-7,6.95-8.33c1.89,1.86,1.53,4,0.66,5.79c-3.55,7.36-3.02,15.01-3.11,22.94
		c-0.12,10.03,1.96,20.17-0.58,30.19c-0.49,1.92-0.31,4.2,0.21,6.14c1.86,6.89,1.32,13.88,1.6,20.88c0.39,9.69,2.1,19.26,7.53,27.79
		c1.72,2.7,2.75,6.01,3.38,9.18c1.77,8.9,7.66,14.95,13.92,20.67c2.45,2.24,5.88,1.79,8.89,0.7c5.43-1.98,10.75-4.26,16.18-6.22
		c8.92-3.21,17.79-6.6,26.88-9.25c5.19-1.51,8.22-4.03,9.24-9.42c0.84-4.44,2.24-8.8,3.67-13.11c1.73-5.22,2.28-10.46,1.35-15.88
		c-0.42-2.47-0.61-5.15-3.32-6.2c-2.81-1.09-4.81,0.77-6.4,2.68c-3.56,4.29-7.64,8.36-10.2,13.21
		c-4.19,7.93-10.21,12.19-19.04,12.53c-5.56,0.21-11.21,0.89-16.67,0.18c-6.66-0.85-11.97-4.41-14.37-11.23
		c-2.47-7-4.93-14.01-7.51-20.97c-1.1-2.98-0.5-5.7,0.79-8.38c1.84-3.82,2.46-7.81,2.15-12.05c-0.9-12.1,1.19-14.81,13.13-17.41
		c6.62-1.44,11.28,2.18,11.44,8.99c0.04,1.64-0.36,3.29-0.41,4.94c-0.17,5.98-0.36,11.95-0.38,17.93c-0.02,3.68,1.45,6.8,4.07,9.43
		c1.97,1.97,4.04,2.75,6.66,1.32c7.86-4.28,14.99-9.55,21.26-15.93c2.71-2.76,2.98-5.96,1.73-9.73c-2.79-8.41-5.38-16.9-7.59-25.48
		c-0.86-3.32-0.89-7.02-0.53-10.46c0.63-6.11-0.26-11.93-1.84-17.76c-3.15-11.66-4.75-23.49-3.77-35.59c0.1-1.23,0.12-2.49-0.08-3.7
		c-0.54-3.31-2.44-5.27-5.52-4.32c-14.51,4.44-28.2-0.67-42.11-3.16c-6.29-1.13-12.56-2.42-18.79-3.84
		c-2.19-0.5-4.24-1.58-6.35-2.41c-5-1.96-7.93-0.82-9.52,4.33c-1.22,3.93-1.76,8.07-2.67,12.1c-2.06,9.05-3.83,18.18-6.33,27.11
		c-3.88,13.88-5.58,27.87-4.71,42.29c0.54,9.07,0.26,18.2,0.05,27.3c-0.07,3.05-0.88,6.13-1.64,9.12
		c-3.64,14.2-7.72,28.3-10.91,42.6c-1.37,6.15-0.91,12.69-1.43,19.04c-0.34,4.07-0.18,8.42-1.61,12.11
		c-4.63,11.93-9.48,23.81-15.02,35.34c-7.21,14.99-17.87,27.8-28.12,40.73c-4.67,5.9-11.07,10.52-17.03,15.29
		c-4.99,4-7.81,8.77-8.64,15.12c-3.72,28.68-7.71,57.33-11.38,86.01c-1.02,7.98-0.9,16.12-2,24.09
		c-1.72,12.48-4.14,24.86-6.05,37.32c-0.81,5.3-1.11,10.67-1.59,16.02c-0.74,8.3-2.86,10.54-11.13,10.86
		c-6.4,0.25-12.82,0.22-19.23,0.15c-8.3-0.09-11.1-2.77-10.35-10.87c1.08-11.72,2.69-23.39,4.05-35.08
		c0.72-6.15,1.26-12.33,2.09-18.46c1.32-9.83,2.81-19.63,4.24-29.44c0.54-3.68,1.21-7.35,1.64-11.04c0.24-2.04,0.37-4.16,0.09-6.18
		c-0.56-4.04-2.86-5.45-6.54-3.7c-2.94,1.4-5.95,3.13-8.19,5.43c-9.68,9.95-22.2,15.77-33.49,23.33
		c-4.95,3.32-10.46,1.01-12.08-5.13c-1.28-4.88-1.29-10.18-1.3-15.3c-0.02-5.57,0.59-11.14,0.97-16.71
		c0.3-4.44-0.31-8.71-2.71-12.52c-3.4-5.38-2.47-10.26,1.57-14.73c4.17-4.61,6.15-10.06,7.5-16.05c3.47-15.31,7.1-30.6,11.2-45.76
		c1.88-6.95,5.19-13.49,7.52-20.33c4.46-13.1,8.85-26.23,12.9-39.46c0.93-3.03,0.74-6.55,0.39-9.77c-0.37-3.39,0.2-6.05,2.82-8.32
		c4.6-3.98,6.67-9.16,7.67-15.12c0.63-3.77,2.44-7.35,3.86-10.96c1.67-4.23,3.62-8.34,5.21-12.6c2.61-6.96,4.99-14.01,7.55-20.99
		c4.19-11.45,8.42-22.89,12.68-34.32c5.7-15.33,12.47-30.14,20.99-44.16c2.08-3.42,3.52-7.56,4.05-11.52
		c3.44-25.6,6.54-51.24,9.76-76.87c0.93-7.38,1.76-14.78,2.83-22.14c0.88-6.03-1.13-10.79-5.19-15.2
		c-4.33-4.7-8.47-9.63-12.17-14.83c-5.31-7.48-6.77-15.86-4.22-24.8c1.42-4.97,2.62-10.01,4.31-14.88
		c1.61-4.63,0.31-8.13-3.37-10.91c-2.13-1.61-4.44-3.02-6.78-4.33c-3.37-1.9-6.74-1.56-9.98,0.47c-0.7,0.44-1.44,0.84-2.06,1.38
		c-13.76,11.83-30.72,18.63-45.49,28.86c-3.4,2.35-6.94,4.5-10.34,6.84c-7.33,5.05-14.63,10.11-23.31,12.69
		c-1.17,0.35-2.28,0.98-3.33,1.62C840.25,460.95,839.97,461.58,839.19,462.58z M1145.29,441.38c-0.35-4.19-1.17-7.89-4.14-10.94
		c-2.58-2.65-5.05-5.42-7.52-8.17c-2.83-3.16-6.23-4.95-10.46-3.6c-5.28,1.68-10.48,3.65-15.68,5.56
		c-4.04,1.49-7.94,3.49-12.09,4.55c-9.56,2.44-11.6,4.46-13.43,14.37c-1.38,7.51-2.98,14.97-4.45,22.46
		c-0.28,1.42-0.48,2.85-0.65,4.28c-0.51,4.37,1.13,7.7,5.05,9.74c2.56,1.33,5.18,2.57,7.86,3.63c10.61,4.22,18.59,12.14,27.06,19.33
		c1.65,1.4,2.53,3.71,3.72,5.63c3.57,5.8,7.02,11.66,10.71,17.38c1.09,1.69,2.61,3.24,4.26,4.39c2.4,1.68,4.39,1.06,5.34-1.72
		c0.79-2.31,1.44-4.86,1.31-7.25c-0.31-5.54-0.39-11.26-1.88-16.54c-4.85-17.15-3.44-33.87,1.95-50.56
		C1143.56,449.86,1144.29,445.58,1145.29,441.38z M651.85,367c2.18,10.57,3.85,20.99,6.57,31.13c2.35,8.74,5.54,17.32,9.06,25.66
		c2.58,6.11,6.47,6.82,11.85,2.91c4.67-3.4,9.06-7.19,13.62-10.76c4.3-3.37,6.15-7.85,5.32-13.11c-0.77-4.87-2.35-9.61-3.28-14.46
		c-1.24-6.46-2.88-12.94-3.14-19.46c-0.56-14.04,3.29-27.41,7.61-40.61c0.71-2.16,1.61-4.3,1.97-6.52c0.65-4.02-1.11-6.11-5.11-5.59
		c-2.77,0.36-5.64,1.39-8.05,2.82c-13.65,8.12-24.1,19.49-31.7,33.29C654.16,356.68,653.41,361.98,651.85,367z"/>
</g>
</svg>
